<svg width="800" height="600" viewBox="0 0 800 600" xmlns="http://www.w3.org/2000/svg">
    <!-- Fondo principal con gradiente oscuro -->
    <defs>
        <linearGradient id="bgGradient" x1="0%" y1="0%" x2="100%" y2="100%">
            <stop offset="0%" style="stop-color:#1a1a2e;stop-opacity:1" />
            <stop offset="100%" style="stop-color:#16213e;stop-opacity:1" />
        </linearGradient>
    </defs>

    <!-- Fondo base -->
    <rect width="800" height="600" fill="url(#bgGradient)" />

    <!-- Patrón de píxeles decorativo -->
    <g fill="#ffffff" opacity="0.05">
        <!-- Patrón superior -->
        <rect x="50" y="50" width="4" height="4" />
        <rect x="150" y="50" width="4" height="4" />
        <rect x="250" y="50" width="4" height="4" />
        <rect x="350" y="50" width="4" height="4" />
        <rect x="450" y="50" width="4" height="4" />
        <rect x="550" y="50" width="4" height="4" />
        <rect x="650" y="50" width="4" height="4" />
        <rect x="750" y="50" width="4" height="4" />

        <!-- Patrón inferior -->
        <rect x="50" y="550" width="4" height="4" />
        <rect x="150" y="550" width="4" height="4" />
        <rect x="250" y="550" width="4" height="4" />
        <rect x="350" y="550" width="4" height="4" />
        <rect x="450" y="550" width="4" height="4" />
        <rect x="550" y="550" width="4" height="4" />
        <rect x="650" y="550" width="4" height="4" />
        <rect x="750" y="550" width="4" height="4" />
    </g>

    <!-- Elementos decorativos -->
    <g fill="#ff0000" opacity="0.1">
        <!-- Cruz decorativa izquierda -->
        <rect x="100" y="250" width="20" height="4" />
        <rect x="108" y="242" width="4" height="20" />

        <!-- Cruz decorativa derecha -->
        <rect x="680" y="250" width="20" height="4" />
        <rect x="688" y="242" width="4" height="20" />
    </g>

    <!-- Borde decorativo -->
    <rect x="20" y="20" width="760" height="560" fill="none" stroke="#ff0000" stroke-width="2"
        opacity="0.2" />
</svg> 